<svg width="468" height="668" viewBox="0 0 468 668" fill="none" xmlns="http://www.w3.org/2000/svg">
<path d="M234 34H134C78.7717 34 34 78.7717 34 134C34 189.228 78.7717 234 134 234M234 34V234M234 34H334C389.23 34 434 78.7717 434 134C434 189.228 389.23 234 334 234M134 234H234M134 234C78.7717 234 34 278.77 34 334C34 389.23 78.7717 434 134 434M234 234H334M234 234V434M334 234C389.23 234 434 278.77 434 334C434 389.23 389.23 434 334 434C278.77 434 234 389.23 234 334C234 278.77 278.77 234 334 234ZM234 434H134M234 434V534C234 589.23 189.23 634 134 634C78.7717 634 34 589.23 34 534C34 478.77 78.7717 434 134 434" stroke="#BBBBBB" stroke-width="66.6667" stroke-linecap="round" stroke-linejoin="round"/>
</svg>
