<svg width="23" height="23" viewBox="0 0 23 23" fill="none" xmlns="http://www.w3.org/2000/svg">
<path fill-rule="evenodd" clip-rule="evenodd" d="M11.4988 0C5.1486 0 0 5.14859 0 11.5007C0 16.5814 3.29474 20.8916 7.86478 22.4128C8.43998 22.5181 8.64958 22.163 8.64958 21.8577C8.64958 21.5854 8.64001 20.8619 8.63427 19.9024C5.43524 20.5973 4.7605 18.3606 4.7605 18.3606C4.23746 17.0326 3.48328 16.679 3.48328 16.679C2.43911 15.965 3.56224 15.9794 3.56224 15.9794C4.71648 16.0612 5.32374 17.1647 5.32374 17.1647C6.34973 18.9219 8.01552 18.4142 8.67064 18.1203C8.77544 17.3772 9.07166 16.8704 9.40089 16.5828C6.84741 16.2928 4.16233 15.3056 4.16233 10.8992C4.16233 9.64399 4.61072 8.61704 5.34623 7.8131C5.22803 7.52215 4.83324 6.35308 5.45869 4.76959C5.45869 4.76959 6.42438 4.46046 8.62135 5.94871C9.53871 5.69365 10.5226 5.56588 11.5002 5.56157C12.4769 5.56588 13.4608 5.69365 14.3796 5.94871C16.5751 4.46046 17.5389 4.76959 17.5389 4.76959C18.1663 6.35308 17.7715 7.52215 17.6533 7.8131C18.3902 8.61704 18.8358 9.64399 18.8358 10.8992C18.8358 15.3171 16.1464 16.289 13.5843 16.5737C13.9977 16.9288 14.3652 17.6303 14.3652 18.7037C14.3652 20.2407 14.3514 21.4811 14.3514 21.8577C14.3514 22.1659 14.5581 22.5239 15.1419 22.4114C19.7081 20.8873 23 16.5799 23 11.5007C23 5.14859 17.8509 0 11.4988 0Z" fill="#BBBBBB"/>
</svg>
