<svg width="26" height="19" viewBox="0 0 26 19" fill="none" xmlns="http://www.w3.org/2000/svg">
<path d="M23.2143 0H2.78571C2.0469 0 1.33834 0.27297 0.815917 0.75886C0.293494 1.24475 0 1.90376 0 2.59091V16.4091C0 17.0962 0.293494 17.7553 0.815917 18.2411C1.33834 18.727 2.0469 19 2.78571 19H23.2143C23.9531 19 24.6617 18.727 25.1841 18.2411C25.7065 17.7553 26 17.0962 26 16.4091V2.59091C26 1.90376 25.7065 1.24475 25.1841 0.75886C24.6617 0.27297 23.9531 0 23.2143 0ZM18.915 1.72727L13 6.61545L7.085 1.72727H18.915ZM20.4286 17.2727H5.57143V7.41864L12.3871 12.9545C12.5566 13.093 12.7744 13.1694 13 13.1694C13.2256 13.1694 13.4434 13.093 13.6129 12.9545L20.4286 7.41864V17.2727ZM24.1429 16.4091C24.1429 16.6381 24.045 16.8578 23.8709 17.0198C23.6967 17.1817 23.4606 17.2727 23.2143 17.2727H22.2857V5.51C22.2855 5.34403 22.2338 5.18163 22.137 5.04225C22.0401 4.90286 21.9021 4.79239 21.7395 4.72406C21.5768 4.65572 21.3965 4.63241 21.22 4.65693C21.0435 4.68144 20.8783 4.75273 20.7443 4.86227L13 11.1582L5.25571 4.86227C5.12165 4.75273 4.95649 4.68144 4.78 4.65693C4.6035 4.63241 4.42315 4.65572 4.26053 4.72406C4.09791 4.79239 3.9599 4.90286 3.86303 5.04225C3.76615 5.18163 3.71451 5.34403 3.71429 5.51V17.2727H2.78571C2.53944 17.2727 2.30326 17.1817 2.12912 17.0198C1.95497 16.8578 1.85714 16.6381 1.85714 16.4091V2.59091C1.85714 2.36186 1.95497 2.14219 2.12912 1.98023C2.30326 1.81826 2.53944 1.72727 2.78571 1.72727H4.29L12.3871 8.42045C12.5566 8.55891 12.7744 8.63527 13 8.63527C13.2256 8.63527 13.4434 8.55891 13.6129 8.42045L21.71 1.72727H23.2143C23.4606 1.72727 23.6967 1.81826 23.8709 1.98023C24.045 2.14219 24.1429 2.36186 24.1429 2.59091V16.4091Z" fill="#BBBBBB"/>
</svg>
