<svg width="713" height="800" viewBox="0 0 713 800" fill="none" xmlns="http://www.w3.org/2000/svg">
<path d="M424.567 91.7333L589.067 186.7C602.067 173.033 620.4 164.567 640.7 164.567C680.067 164.567 711.967 196.467 711.967 235.833C711.967 269.2 689.033 297.233 658.067 304.967L657.567 305.067V495.067C689.2 502.833 712.3 530.933 712.3 564.433C712.3 603.833 680.367 635.767 640.967 635.767C619.733 635.767 600.7 626.5 587.633 611.8L587.567 611.733L424.067 706.133C426.367 712.867 427.7 720.6 427.7 728.633C427.7 768.033 395.767 799.967 356.367 799.967C316.967 799.967 285.033 768.033 285.033 728.633C285.033 721.433 286.1 714.467 288.1 707.933L287.967 708.433L123.267 613.633C110.267 627.2 91.9667 635.633 71.7333 635.633C32.3333 635.633 0.4 603.7 0.4 564.3C0.4 530.9 23.3667 502.833 54.3667 495.1L54.8667 495V305.033C23.1667 297.333 0 269.167 0 235.633C0 196.233 31.9333 164.3 71.3333 164.3C84.5333 164.3 96.9333 167.9 107.533 174.167L107.2 174C113.333 177.533 118.6 181.7 123.167 186.533L123.2 186.567L287.8 91.5667C285.933 85.5 284.867 78.5333 284.867 71.3C284.867 31.9333 316.8 0 356.167 0C395.533 0 427.467 31.9333 427.467 71.3C427.467 78.6 426.367 85.6333 424.333 92.2667L424.467 91.7667L424.567 91.7333ZM407.4 120.967C406.767 121.667 406.167 122.267 405.5 122.867L405.467 122.9L620.833 495.9C621.7 495.6 622.7 495.367 623.567 495.133V304.9C592.3 296.967 569.533 269.033 569.533 235.833C569.533 229.733 570.3 223.8 571.733 218.133L571.633 218.633C571.833 217.833 572.033 217 572.267 216.233L407.4 120.967ZM306.9 122.933L304.9 120.933L140.033 216C141.8 221.9 142.833 228.7 142.833 235.733C142.833 268.033 121.333 295.3 91.8333 304.033L91.3333 304.167L88.8 304.867V495.133L91.6 495.9L306.967 122.9L306.9 122.933ZM376.1 139.833C370.133 141.6 363.3 142.633 356.233 142.633C349.167 142.633 342.333 141.6 335.867 139.7L336.367 139.833L121.033 512.8C130.567 522 137.567 533.767 140.933 547L141.033 547.5H571.4C574.8 533.733 581.833 521.9 591.367 512.733L591.4 512.7L376.2 139.833H376.1ZM408.967 680.733L572.867 586.133C572.367 584.567 571.967 583 571.6 581.4H140.933L140.233 584.167L304.867 679.233C317.867 665.8 336.067 657.467 356.2 657.467C377.067 657.467 395.833 666.4 408.9 680.667L408.967 680.733Z" fill="#BBBBBB"/>
</svg>
