<svg width="774" height="798" viewBox="0 0 774 798" fill="none" xmlns="http://www.w3.org/2000/svg">
<path d="M771.85 477.943C767.199 463.858 755.015 454.045 739.256 451.689C731.826 450.58 723.316 451.053 713.247 453.13C695.697 456.75 682.676 458.128 673.173 458.397C709.041 397.836 738.208 328.774 754.998 263.764C782.148 158.648 767.64 110.761 750.686 89.0987C705.818 31.7679 640.355 0.9669 561.376 0.0227334C519.249 -0.491452 482.262 7.82689 462.97 13.8072C445.005 10.6397 425.689 8.86959 405.42 8.54173C367.433 7.93618 333.866 16.2169 305.185 33.237C289.302 27.8694 263.82 20.2999 234.39 15.468C165.17 4.10397 109.384 12.9598 68.5785 41.7864C19.1665 76.6902 -3.74076 137.332 0.496349 222.029C1.84004 248.921 16.884 330.737 40.5688 408.333C54.1813 452.931 68.6967 489.968 83.712 518.422C105.005 558.771 127.789 582.532 153.367 591.064C167.705 595.842 193.753 599.185 221.152 576.371C224.624 580.574 229.255 584.754 235.406 588.635C243.213 593.56 252.763 597.584 262.297 599.968C296.666 608.561 328.857 606.411 356.32 594.369C356.488 599.253 356.619 603.92 356.73 607.95C356.913 614.487 357.092 620.896 357.332 626.889C358.959 667.418 361.716 698.93 369.886 720.977C370.334 722.192 370.938 724.039 371.575 725.997C375.649 738.478 382.466 759.368 399.804 775.73C417.761 792.677 439.478 797.876 459.369 797.874C469.344 797.874 478.863 796.566 487.21 794.776C516.97 788.4 550.766 778.683 575.214 743.872C598.328 710.962 609.565 661.396 611.598 583.294C611.861 581.087 612.105 578.978 612.34 576.968C612.497 575.612 612.659 574.225 612.822 572.842L618.268 573.32L619.671 573.415C649.981 574.796 687.042 568.368 709.802 557.796C727.788 549.449 785.42 519.024 771.85 477.943Z" fill="black"/>
<path d="M720.025 485.934C629.904 504.523 623.709 474.011 623.709 474.011C718.862 332.819 758.639 153.598 724.312 109.734C630.666 -9.91695 468.559 46.6704 465.854 48.1395L464.983 48.2953C447.179 44.5993 427.253 42.3974 404.858 42.0319C364.079 41.3637 333.148 52.7223 309.676 70.5218C309.676 70.5218 20.4941 -48.6099 33.9435 220.352C36.8047 277.572 115.955 653.302 210.363 539.814C244.869 498.315 278.209 463.227 278.209 463.227C294.768 474.227 314.592 479.839 335.375 477.823L336.989 476.453C336.487 481.605 336.717 486.645 337.636 492.611C313.315 519.784 320.461 524.555 271.843 534.563C222.648 544.701 251.548 562.752 270.417 567.469C293.292 573.189 346.214 581.293 381.972 531.236L380.546 536.947C390.075 544.58 396.767 586.594 395.645 624.68C394.524 662.767 393.775 688.915 401.284 709.339C408.792 729.763 416.276 775.718 480.189 762.023C533.594 750.578 561.269 720.92 565.119 671.449C567.851 636.278 574.034 641.478 574.424 610.033L579.383 595.147C585.102 547.471 580.292 532.09 613.194 539.244L621.19 539.946C645.407 541.048 677.102 536.052 695.704 527.405C735.76 508.816 759.517 477.778 720.021 485.934H720.025Z" fill="#BBBBBB"/>
<path d="M326.603 245.942C318.484 244.811 311.127 245.858 307.406 248.674C305.312 250.26 304.665 252.096 304.491 253.361C304.024 256.709 306.371 260.411 307.811 262.321C311.889 267.726 317.848 271.442 323.745 272.26C324.6 272.379 325.449 272.436 326.295 272.436C336.131 272.436 345.071 264.779 345.859 259.126C346.844 252.048 336.568 247.329 326.603 245.942Z" fill="white"/>
<path d="M595.646 246.166C594.872 240.617 584.995 239.035 575.625 240.338C566.269 241.642 557.195 245.865 557.953 251.426C558.562 255.751 566.368 263.134 575.612 263.132C576.392 263.132 577.18 263.08 577.974 262.969C584.144 262.114 588.671 258.196 590.821 255.937C594.098 252.497 595.992 248.66 595.646 246.166Z" fill="white"/>
<path d="M750.014 483.821C746.578 473.43 735.519 470.085 717.142 473.881C662.581 485.141 643.042 477.341 636.625 472.616C679.035 408.008 713.923 329.915 732.743 257.049C741.66 222.534 746.585 190.481 746.986 164.356C747.431 135.676 742.549 114.605 732.475 101.733C691.861 49.8374 632.257 22.0015 560.104 21.2365C510.502 20.6793 468.593 33.3745 460.469 36.9434C443.359 32.6884 424.707 30.0762 404.403 29.743C367.164 29.141 334.979 38.056 308.329 56.2262C296.753 51.9193 266.837 41.6499 230.255 35.7574C167.005 25.5722 116.745 33.2885 80.8777 58.6986C38.0802 89.0195 18.3226 143.219 22.1512 219.787C23.4394 245.551 38.1161 324.798 61.2813 400.693C91.7723 500.583 124.915 557.133 159.79 568.764C163.871 570.125 168.579 571.078 173.768 571.078C186.49 571.078 202.086 565.344 218.314 545.835C245.268 513.407 270.435 486.234 279.712 476.361C293.421 483.721 308.479 487.829 323.885 488.241C323.912 488.644 323.953 489.047 323.989 489.448C320.898 493.114 318.363 496.326 316.203 499.069C305.53 512.617 303.309 515.437 268.953 522.512C259.182 524.528 233.224 529.877 232.846 548.071C232.432 567.949 263.525 576.297 267.068 577.182C279.414 580.273 291.307 581.798 302.649 581.798C330.236 581.796 354.51 572.73 373.912 555.189C373.313 626.055 376.269 695.886 384.778 717.163C391.745 734.579 408.77 777.147 462.549 777.143C470.437 777.143 479.124 776.226 488.679 774.178C544.802 762.144 569.173 737.34 578.602 682.653C583.647 653.427 592.306 583.634 596.377 546.199C604.971 548.879 616.036 550.106 627.996 550.104C652.942 550.104 681.726 544.805 699.778 536.426C720.055 527.009 756.65 503.897 750.014 483.821ZM616.36 230.849C616.174 241.901 614.653 251.934 613.04 262.408C611.306 273.671 609.511 285.317 609.059 299.454C608.613 313.212 610.331 327.516 611.994 341.347C615.351 369.285 618.797 398.049 605.458 426.431C603.385 422.749 601.384 418.733 599.55 414.284C597.892 410.266 594.293 403.81 589.311 394.876C569.918 360.101 524.509 278.666 547.755 245.436C554.677 235.543 572.249 225.375 616.36 230.849ZM562.894 43.617C627.541 45.0449 678.679 69.2296 714.887 115.496C742.656 150.983 712.077 312.459 623.553 451.764C622.679 450.653 621.789 449.532 620.868 448.382C620.5 447.921 620.126 447.454 619.748 446.981C642.623 409.201 638.149 371.823 634.168 338.683C632.533 325.083 630.988 312.237 631.381 300.172C631.787 287.38 633.479 276.414 635.113 265.808C637.124 252.737 639.169 239.214 638.604 223.27C639.025 221.599 639.196 219.623 638.975 217.277C637.535 201.988 620.081 156.236 584.504 114.82C565.045 92.1709 536.665 66.8217 497.916 49.7246C514.583 46.2704 537.376 43.0491 562.894 43.617ZM201.142 531.556C183.263 553.051 170.916 548.933 166.856 547.58C140.4 538.755 109.704 482.841 82.6406 394.173C59.2228 317.452 45.5368 240.305 44.4547 218.671C41.0346 150.254 57.6193 102.571 93.7502 76.9477C152.55 35.2485 249.224 60.2072 288.069 72.8665C287.51 73.4165 286.93 73.9325 286.376 74.4915C222.633 138.869 224.146 248.858 224.301 255.58C224.296 258.174 224.513 261.847 224.812 266.899C225.909 285.397 227.949 319.828 222.497 358.82C217.429 395.053 228.598 430.518 253.135 456.119C255.676 458.769 258.327 461.258 261.067 463.599C250.143 475.297 226.407 501.162 201.142 531.556ZM269.26 440.667C249.482 420.033 240.501 391.33 244.614 361.912C250.373 320.722 248.246 284.849 247.105 265.577C246.945 262.881 246.804 260.517 246.72 258.652C256.032 250.397 299.186 227.273 329.96 234.324C344.006 237.542 352.561 247.104 356.119 263.554C374.533 348.714 358.558 384.209 345.721 412.731C343.075 418.607 340.576 424.161 338.44 429.908L336.786 434.35C332.598 445.581 328.701 456.023 326.286 465.939C305.263 465.875 284.811 456.895 269.26 440.667ZM272.486 555.517C266.348 553.983 260.827 551.319 257.587 549.11C260.293 547.836 265.108 546.105 273.459 544.386C313.875 536.064 320.116 530.193 333.746 512.886C336.872 508.919 340.414 504.421 345.32 498.942L345.325 498.935C352.633 490.754 355.974 492.141 362.035 494.655C366.948 496.688 371.731 502.844 373.672 509.62C374.589 512.82 375.621 518.895 372.247 523.619C343.773 563.486 302.284 562.973 272.486 555.517ZM483.997 752.342C434.555 762.936 417.049 737.709 405.513 708.869C398.068 690.25 394.409 606.29 397.005 513.574C397.039 512.339 396.864 511.148 396.523 510.028C396.228 507.866 395.773 505.678 395.142 503.476C391.279 489.986 381.872 478.701 370.585 474.023C366.1 472.165 357.868 468.755 347.977 471.285C350.087 462.594 353.745 452.782 357.71 442.154L359.375 437.682C361.249 432.642 363.597 427.422 366.084 421.897C379.517 392.052 397.915 351.177 377.948 258.833C370.468 224.247 345.493 207.357 307.632 211.279C284.932 213.628 264.168 222.787 253.811 228.038C251.584 229.166 249.547 230.256 247.644 231.318C250.534 196.468 261.457 131.342 302.313 90.1374C328.034 64.1952 362.293 51.3836 404.034 52.0733C486.276 53.4206 539.015 95.6268 568.779 130.798C594.426 161.106 608.314 191.634 613.857 208.099C572.176 203.862 543.828 212.091 529.455 232.635C498.192 277.324 546.56 364.066 569.806 405.753C574.068 413.394 577.748 419.996 578.905 422.801C586.475 441.147 596.275 453.394 603.43 462.336C605.623 465.076 607.751 467.732 609.369 470.053C596.746 473.693 574.07 482.101 576.135 524.133C574.469 545.226 562.616 643.971 556.596 678.859C548.649 724.949 531.688 742.118 483.997 752.342ZM690.374 516.17C677.466 522.163 655.863 526.658 635.34 527.622C612.673 528.684 601.135 525.083 598.421 522.869C597.145 496.676 606.897 493.938 617.215 491.041C618.836 490.584 620.418 490.142 621.944 489.608C622.894 490.38 623.933 491.147 625.071 491.897C643.289 503.923 675.785 505.22 721.659 495.751C721.827 495.715 721.996 495.683 722.162 495.649C715.976 501.434 705.388 509.199 690.374 516.17Z" fill="white"/>
</svg>
