<svg width="32" height="32" viewBox="0 0 32 32" fill="none" xmlns="http://www.w3.org/2000/svg">
<path d="M4.29578 13.1634C2.38891 20.5377 6.98316 28.0027 13.9594 29.5216C20.7708 31.0046 27.552 26.4052 29.2259 19.7454C30.9229 12.9941 26.963 5.6937 20.219 3.8397C9.66103 1.00432 4.93803 10.5658 4.93753 11.0462" stroke="#BBBBBB" stroke-width="0.7" stroke-miterlimit="10" stroke-linecap="round" stroke-linejoin="round"/>
<path d="M14.1299 20.7929C14.0906 18.3234 14.2365 13.5863 14.0268 13.3528C13.8171 13.1194 12.1681 12.4234 11.8587 11.8899C11.5493 11.3563 11.6394 10.2872 12.7448 10.2858C13.8502 10.2844 13.99 11.3024 13.7022 11.9645C13.4143 12.6266 11.7848 13.1154 11.599 13.3845C11.4132 13.6536 11.3341 21.3945 11.599 21.5844C11.8639 21.7743 15.1893 21.7585 15.4835 21.521C15.7779 21.2836 15.1156 13.6061 15.4835 13.4161C15.8515 13.226 17.3817 13.1945 17.573 13.2895C17.7643 13.3845 17.6466 14.1918 17.779 14.2709C17.9114 14.3501 18.8881 12.9597 20.4276 13.1628C21.5682 13.3132 22.5906 14.3501 22.7525 15.379C22.9143 16.4079 22.8505 19.4315 22.8113 21.4577C22.0266 21.4894 21.2418 21.5369 20.4571 21.5685C20.4277 19.8589 20.5749 17.6269 20.3688 16.4555C20.1628 15.284 17.9341 15.3001 17.9557 16.4555C17.9773 17.6108 18.1322 21.5685 17.6614 21.5527" fill="#BBBBBB"/>
</svg>
