<svg width="204" height="204" viewBox="0 0 204 204" fill="none" xmlns="http://www.w3.org/2000/svg">
<circle cx="102" cy="102" r="102" fill="black"/>
<path d="M37.567 74.6545C36.7016 72.0322 38.1258 69.2049 40.7481 68.3394L46.4459 66.4591L57.4147 99.6959L51.7169 101.576C49.0946 102.442 46.2673 101.017 45.4018 98.3951L37.567 74.6545Z" fill="#D9D9D9"/>
<path d="M54.1769 124.985L51.9831 118.337C51.1177 115.715 52.5419 112.888 55.1643 112.022L73.2071 106.068L76.9678 117.463L54.1769 124.985Z" fill="#D9D9D9"/>
<path d="M49.8932 76.905L46.4458 66.4591L108.171 46.0885C111.318 45.05 114.711 46.759 115.749 49.9058L117.316 54.6539L49.8932 76.905Z" fill="#D9D9D9"/>
<path d="M57.4147 99.6959L53.9673 89.2501L116.168 68.7227C119.052 67.7708 122.162 69.3374 123.114 72.222V72.222C124.066 75.1065 122.5 78.2166 119.615 79.1686L57.4147 99.6959Z" fill="#D9D9D9"/>
<path d="M73.2071 106.068L78.9048 104.187C81.5271 103.322 84.3545 104.746 85.2199 107.368L90.861 124.462L80.4152 127.909L73.2071 106.068Z" fill="#D9D9D9"/>
<path d="M54.1769 124.985L64.6227 121.537L78.7255 164.27L73.0278 166.151C70.4054 167.016 67.5781 165.592 66.7127 162.969L54.1769 124.985Z" fill="#D9D9D9"/>
<path d="M78.7255 164.27L74.9648 152.875L142.388 130.624L144.268 136.321C145.307 139.468 143.598 142.861 140.451 143.9L78.7255 164.27Z" fill="#D9D9D9"/>
<path d="M88.6106 136.788C85.9883 137.653 83.161 136.229 82.2955 133.607L80.4152 127.909L130.27 111.456C133.155 110.504 136.265 112.07 137.217 114.955V114.955C138.169 117.84 136.602 120.95 133.718 121.902L88.6106 136.788Z" fill="#D9D9D9"/>
<path d="M102.608 109.001C99.9854 109.867 97.158 108.443 96.2926 105.82L95.6658 103.921C94.8004 101.299 96.2246 98.4714 98.8469 97.606L128.285 87.8907L132.046 99.2862L102.608 109.001Z" fill="#D9D9D9"/>
<path d="M106.747 46.5585C114.429 44.0235 122.753 44.4936 129.889 47.8656C137.025 51.2376 142.388 57.2352 144.799 64.5391C147.209 71.8429 146.469 79.8546 142.742 86.8118C139.015 93.7689 132.605 99.1016 124.924 101.637L121.428 91.043C126.154 89.4831 130.098 86.2018 132.392 81.9209C134.685 77.64 135.14 72.7102 133.657 68.216C132.174 63.7218 128.874 60.0314 124.483 57.9565C120.092 55.8817 114.97 55.5924 110.243 57.1522L106.747 46.5585Z" fill="#D9D9D9"/>
<path d="M121.163 90.2412C128.845 87.7061 137.153 88.1263 144.259 91.4092C151.366 94.6922 156.689 100.569 159.058 107.747C161.427 114.925 160.647 122.816 156.891 129.684C153.134 136.552 146.708 141.835 139.027 144.37L135.459 133.559C140.072 132.037 143.931 128.864 146.187 124.739C148.444 120.615 148.912 115.876 147.489 111.565C146.067 107.254 142.87 103.725 138.602 101.753C134.333 99.7815 129.344 99.5292 124.731 101.052L121.163 90.2412Z" fill="#D9D9D9"/>
</svg>
