<svg width="40" height="40" viewBox="0 0 40 40" fill="none" xmlns="http://www.w3.org/2000/svg">
<circle cx="20" cy="20" r="20" fill="white"/>
<path d="M9.73559 12.0896C9.74018 10.8984 10.7095 9.93646 11.9007 9.94105V9.94105L11.8743 16.8037V16.8037C10.6831 16.7992 9.72119 15.8298 9.72577 14.6386L9.73559 12.0896Z" fill="black"/>
<path d="M9.7002 21.3052V21.3052C9.7052 20.0057 10.7627 18.9563 12.0622 18.9613L14.4151 18.9704L14.406 21.3233L9.7002 21.3052Z" fill="black"/>
<path d="M11.8923 12.0979L11.9006 9.94105L23.6653 9.98636C24.8565 9.99095 25.8184 10.9603 25.8138 12.1515V12.1515L11.8923 12.0979Z" fill="black"/>
<path d="M11.8743 16.8038L11.8826 14.647L24.7256 14.6964C25.3212 14.6987 25.8022 15.1834 25.7999 15.779V15.779C25.7976 16.3746 25.3129 16.8556 24.7173 16.8533L11.8743 16.8038Z" fill="black"/>
<path d="M14.415 18.9705V18.9705C15.6062 18.975 16.5682 19.9444 16.5636 21.1356L16.5545 23.4885L14.3977 23.4802L14.415 18.9705Z" fill="black"/>
<path d="M9.7002 21.3052L11.857 21.3135L11.8231 30.1369V30.1369C10.6319 30.1324 9.66994 29.163 9.67452 27.9718L9.7002 21.3052Z" fill="black"/>
<path d="M11.823 30.137L11.8321 27.784L25.7535 27.8376V27.8376C25.7485 29.1371 24.691 30.1865 23.3915 30.1815L11.823 30.137Z" fill="black"/>
<path d="M16.546 25.6453C15.3548 25.6407 14.3929 24.6713 14.3975 23.4801V23.4801L24.6915 23.5198C25.2871 23.5221 25.7681 24.0067 25.7658 24.6023V24.6023C25.7635 25.1979 25.2788 25.6789 24.6832 25.6766L16.546 25.6453Z" fill="black"/>
<path d="M19.8962 21.3445C19.2464 21.342 18.7218 20.8132 18.7243 20.1635V20.1635C18.7268 19.5138 19.2555 18.9891 19.9052 18.9916L25.7876 19.0142L25.7785 21.3671L19.8962 21.3445Z" fill="black"/>
<path d="M24.3515 9.98894C25.9376 9.99505 27.4564 10.6 28.5739 11.6707C29.6913 12.7414 30.3158 14.1901 30.31 15.6982C30.3042 17.2063 29.6685 18.6502 28.5429 19.7122C27.4173 20.7743 25.8938 21.3675 24.3077 21.3614L24.3162 19.174C25.2921 19.1778 26.2295 18.8128 26.9221 18.1593C27.6148 17.5058 28.0059 16.6173 28.0095 15.6893C28.013 14.7614 27.6288 13.87 26.9412 13.2111C26.2536 12.5523 25.3191 12.1801 24.3431 12.1763L24.3515 9.98894Z" fill="black"/>
<path d="M24.3168 19.0085C25.9029 19.0146 27.4218 19.6092 28.5393 20.6615C29.6568 21.7138 30.2814 23.1376 30.2757 24.6197C30.27 26.1018 29.6344 27.5208 28.5089 28.5644C27.3833 29.6081 25.8599 30.191 24.2738 30.1849L24.2824 27.9528C25.2349 27.9564 26.1498 27.6064 26.8258 26.9796C27.5018 26.3528 27.8835 25.5006 27.8869 24.6105C27.8903 23.7204 27.5152 22.8654 26.8441 22.2334C26.173 21.6014 25.2608 21.2443 24.3082 21.2406L24.3168 19.0085Z" fill="black"/>
</svg>
