<svg width="125" height="125" viewBox="0 0 125 125" fill="none" xmlns="http://www.w3.org/2000/svg">
<rect x="0.5" y="0.5" width="124" height="124" stroke="black"/>
<path d="M35.4764 37.6443C43.985 29.7356 53.4884 23.676 59.9163 20.0061C64.6011 17.3313 70.3985 17.3313 75.0833 20.0061C81.5112 23.676 91.0147 29.7356 99.5236 37.6443C117.971 54.7916 116.991 64.7042 116.991 80.9401C116.991 88.5699 116.348 95.0048 115.666 99.6829C114.949 104.605 110.331 108 104.987 108H96.6124C90.1809 108 84.9675 103.154 84.9675 97.176V86.3521C84.9675 82.0458 83.127 77.9165 79.8513 74.8717C76.5756 71.8269 72.1324 70.1162 67.5001 70.1162C62.8672 70.1162 58.4246 71.8269 55.1486 74.8717C51.8728 77.9165 50.0325 82.0458 50.0325 86.3521V97.176C50.0325 103.154 44.8189 108 38.3876 108H30.0123C24.6688 108 20.0506 104.605 19.3335 99.6823C18.652 95.0048 18.0091 88.5699 18.0091 80.9401C18.0091 64.7042 17.0286 54.7916 35.4764 37.6443Z" fill="#D9D9D9"/>
</svg>
