<svg width="801" height="800" viewBox="0 0 801 800" fill="none" xmlns="http://www.w3.org/2000/svg">
<path d="M593.725 750.034C590.75 751.609 591 752.109 593.85 750.659C594.775 750.284 595.55 749.759 596.225 749.134C596.225 748.609 596.225 748.609 593.725 750.034ZM599.725 746.784C598.3 747.959 598.3 747.959 600 747.184C600.9 746.659 601.7 746.159 601.7 746.009C601.7 745.334 601.3 745.484 599.725 746.784ZM603.625 744.434C602.2 745.609 602.2 745.609 603.9 744.834C604.825 744.309 605.6 743.759 605.6 743.634C605.6 743.009 605.2 743.134 603.625 744.434ZM607.575 742.109C606.15 743.284 606.15 743.284 607.8 742.484C608.725 741.984 609.5 741.459 609.5 741.309C609.5 740.684 609.1 740.809 607.575 742.109ZM612.9 738.584C610.175 740.409 609.225 741.584 611.725 740.284C613.4 739.259 616.25 737.009 615.75 737.009C614.675 737.409 613.775 738.084 612.875 738.584H612.9ZM373.825 0.183751C372 0.308751 366.525 0.808751 361.725 1.20875C248.025 11.5088 141.65 72.7087 74.225 166.984C36.95 218.659 12.75 278.684 3.625 341.709C0.4 363.709 0 370.209 0 400.034C0 429.834 0.4 436.234 3.625 458.234C25.4 608.509 132.3 734.659 277.2 781.409C303.275 789.734 330.6 795.484 361.725 799.009C373.825 800.309 426.15 800.309 438.25 799.009C492.05 793.009 537.475 779.734 582.425 756.809C589.325 753.309 590.625 752.384 589.7 751.609C567.7 722.584 546.1 693.534 524.475 664.234L460.55 577.909L380.475 459.284C353.775 419.584 326.975 379.984 299.75 340.684C299.475 340.684 299.125 393.409 298.975 457.709C298.7 570.334 298.7 574.909 297.275 577.509C295.85 580.634 293.5 583.234 290.375 584.684C287.9 585.859 285.675 586.109 273.85 586.109H260.325L256.8 583.909C254.6 582.484 252.775 580.509 251.6 578.184L249.9 574.659L250.025 417.884L250.3 261.109L252.775 257.984C254.35 256.059 256.3 254.484 258.5 253.309C261.775 251.734 263.075 251.484 276.6 251.484C292.475 251.484 295.1 252.109 299.275 256.684C331.675 304.984 363.975 353.409 395.75 401.984C447.725 480.784 518.675 588.309 553.55 641.059L616.975 737.034L620.1 734.959C650.575 714.634 678.3 690.434 702.225 662.834C752.625 605.134 785.325 534.159 796.4 458.409C799.625 436.409 800.025 429.884 800.025 400.084C800.025 370.259 799.625 363.884 796.4 341.884C774.625 191.609 667.725 65.4588 522.825 18.6838C495.725 10.1088 467.85 4.25875 439.625 1.25875C432.05 0.483751 380.35 -0.441249 373.85 0.233751L373.825 0.183751ZM537.5 242.109C541.275 243.909 544.125 247.309 545.425 251.209C546.1 253.309 546.225 296.784 546.1 394.709L545.825 535.309L521.1 497.309L496.225 459.284V357.209C496.225 291.034 496.5 253.934 496.85 252.109C498.025 247.934 500.875 244.434 504.675 242.234C507.775 240.659 508.975 240.534 521.35 240.534C532.925 240.534 534.9 240.659 537.5 242.109Z" fill="#BBBBBB"/>
</svg>
