<svg width="726" height="750" viewBox="0 0 726 750" fill="none" xmlns="http://www.w3.org/2000/svg">
<path d="M571.25 223.15C571 227.025 569.2 230.45 566.475 232.825L566.45 232.85C563.175 236.425 558.8 238.925 553.85 239.8L553.725 239.825C553.025 239.925 552.2 240 551.375 240C551.35 240 551.3 240 551.275 240C543.475 240 536.775 235.275 533.925 228.5L533.875 228.375C533.125 222.85 542.125 218.675 551.4 217.375C560.675 216.075 570.5 217.65 571.25 223.15ZM323.5 236C320.475 243.775 313.05 249.2 304.35 249.2C304.25 249.2 304.175 249.2 304.075 249.2H304.1C303.2 249.2 302.35 249.125 301.475 249.025H301.575C295.05 247.85 289.5 244.25 285.825 239.225L285.775 239.15C283.725 236.8 282.475 233.675 282.475 230.3V230.275C282.775 228.35 283.85 226.7 285.35 225.65L285.375 225.625C289.175 223.525 293.725 222.3 298.575 222.3C300.65 222.3 302.675 222.525 304.625 222.95L304.45 222.925C314.325 224.3 324.525 228.975 323.55 236H323.5ZM598.95 427.075L596.275 423.725L595.175 422.35C606.6 401.2 613.3 376.025 613.3 349.325C613.3 337.125 611.9 325.275 609.25 313.875L609.45 314.925C607.7 303.6 606.675 290.525 606.675 277.225C606.675 277.05 606.675 276.875 606.675 276.7C607.25 264.175 608.575 252.475 610.625 241L610.375 242.65C612.6 231.05 613.875 217.7 613.875 204.05C613.875 202.775 613.875 201.525 613.85 200.275V200.475C614.15 199.25 614.325 197.875 614.325 196.425C614.325 195.75 614.275 195.1 614.225 194.45V194.525C604.225 155.025 585.45 120.8 560.025 92.7L560.2 92.9C537.425 66.2 509.425 44.675 477.7 29.825L476.2 29.2C493.6 25.475 513.6 23.35 534.1 23.35C535.975 23.35 537.85 23.375 539.725 23.4H539.45C540.575 23.375 541.875 23.35 543.2 23.35C602.65 23.35 655.6 51.075 689.85 94.3L690.15 94.7C690.85 95.6 691.55 96.625 692.15 97.7L692.225 97.825C714.825 140.175 683.6 293.875 598.925 427.125L598.95 427.075ZM591.8 207.975C591.4 219.35 590.2 230.125 588.3 240.65L588.5 239.275C586.55 249.9 585.15 262.55 584.575 275.4L584.55 276.025C584.55 276.45 584.55 276.925 584.55 277.425C584.55 291.6 585.6 305.525 587.65 319.125L587.45 317.6C589.575 327.025 590.8 337.825 590.8 348.95C590.8 368.025 587.2 386.275 580.625 403L580.975 402C579.075 398.725 577.1 394.775 575.375 390.675L575.1 389.95C573.45 385.975 569.875 379.55 564.95 370.7C545.725 336.2 500.675 255.425 523.725 222.475C535.575 205.525 565.625 204.8 591.775 208L591.8 207.975ZM574.025 497.6C572.75 471.625 582.425 468.9 592.675 466.025C594.092 465.642 595.5 465.217 596.9 464.75C598.15 465.85 599.525 466.925 600.95 467.875L601.075 467.95C616.575 474.775 634.625 478.725 653.625 478.725C668.425 478.725 682.65 476.325 695.95 471.875L695 472.15C686.4 479.475 676.6 485.75 666 490.6L665.225 490.925C649.125 497.525 630.45 501.65 610.9 502.275H610.65C607.675 502.725 604.25 503 600.775 503C591.125 503 581.925 501 573.6 497.4L574.05 497.575L574.025 497.6ZM546.2 548.25C545.675 553.775 545.075 560 544.275 566.875L539.725 580.575C539.375 581.575 539.175 582.725 539.15 583.925C539.175 584.6 539.175 585.375 539.175 586.15C539.175 595.025 537.85 603.625 535.4 611.7L535.55 611.075C532.65 620.8 530.65 632.075 529.975 643.7L529.95 644.1C528.65 686.2 496.075 720.275 454.75 723.95L454.425 723.975C407.075 734.125 398.675 708.45 391.275 685.8C390.525 683.433 389.725 681.075 388.875 678.725C384.875 662.425 382.575 643.7 382.575 624.45C382.575 615.45 383.075 606.575 384.05 597.825L383.95 598.9C384.1 595.7 384.175 591.925 384.175 588.15C384.175 562.5 380.325 537.75 373.15 514.45L373.625 516.225C373.758 507.058 373.958 497.775 374.225 488.375C374.225 488.3 374.225 488.175 374.225 488.075C374.225 486.925 374.05 485.825 373.725 484.775L373.75 484.85C373.4 482.35 372.925 480.15 372.3 478.025L372.375 478.35C368.85 465.325 359.975 454.825 348.275 449.25L348 449.125C343.6 446.925 338.4 445.625 332.875 445.625C330.275 445.625 327.75 445.9 325.325 446.45L325.55 446.4C328.75 434.65 332.05 425.05 335.85 415.7L335.2 417.525L336.85 413.1C338.7 408.1 341.025 402.925 343.5 397.45C357.15 369.35 365.125 336.325 365.125 301.425C365.125 277.975 361.525 255.375 354.85 234.125L355.275 235.7C350.7 208 326.9 187.125 298.25 187.125C293.75 187.125 289.35 187.65 285.15 188.625L285.55 188.55C265.65 191.15 247.65 197 231.275 205.6L232.15 205.175C230.083 206.225 228.042 207.308 226.025 208.425C228.3 154.75 248.425 106.175 280.55 68.05L280.25 68.4C283.2 65.425 286.3 62.6 289.5 59.95L289.725 59.775C291.45 59.425 292.975 58.725 294.275 57.75L294.25 57.775C316.575 41.425 344.6 31.6 374.925 31.6C377.35 31.6 379.75 31.65 382.125 31.775L381.8 31.75C394.95 31.95 407.65 32.85 420.15 34.45L418.475 34.275C469.55 44.1 513.15 70.85 544.275 108.35L544.55 108.7C563.25 130.425 578.4 155.875 588.7 183.65L589.25 185.375C582.825 183.65 575.45 182.65 567.85 182.65C543.275 182.65 521.15 193.05 505.6 209.675L505.55 209.725C474.55 254.05 522.525 340.1 545.575 381.45C549.8 389.025 553.45 395.575 554.6 398.35C561.1 413.375 569.275 426.3 579.1 437.775L578.925 437.575C581.1 440.3 583.2 442.925 584.825 445.225C572.3 448.825 549.8 457.175 551.85 498.875C551.475 503.75 550.525 512.825 549.25 524.325C547.9 531.05 546.8 539.25 546.175 547.575L546.125 548.275L546.2 548.25ZM316.15 405.4L314.5 409.8C311.075 418 307.525 428.425 304.575 439.1L304.1 441.125C281.775 440.8 261.725 431.25 247.575 416.1L247.525 416.05C231.725 399.375 222.025 376.8 222.025 351.95C222.025 347 222.4 342.15 223.15 337.4L223.075 337.925C225.5 319.925 226.9 299.15 226.9 278.025C226.9 265.475 226.4 253.05 225.45 240.75L225.55 242.375C225.4 239.7 225.25 237.35 225.175 235.5C245.3 220.225 270.775 211 298.4 211C301.7 211 304.95 211.125 308.175 211.375L307.75 211.35C321.6 214.575 332.025 226.05 333.675 240.175L333.7 240.325C339.65 258.525 343.075 279.475 343.075 301.2C343.075 332.85 335.8 362.8 322.85 389.5L323.375 388.3C320.75 394.125 318.275 399.625 316.15 405.35V405.4ZM250.725 530C245.6 528.7 241.1 526.8 237 524.325L237.225 524.45C241.525 522.625 246.6 521.1 251.85 520.125L252.325 520.05C292.425 511.8 298.6 505.975 312.125 488.8C315.225 484.875 318.725 480.4 323.6 474.975C324.6 473.85 325.4 472.5 325.875 471L325.9 470.925C331.225 466.2 334.4 467.5 339.55 469.625C345.225 472.75 349.425 478.025 351.05 484.3L351.075 484.475C351.65 486.1 352 487.95 352 489.9C352 493.025 351.125 495.95 349.625 498.425L349.675 498.35C333.55 520.4 307.775 534.575 278.7 534.575C268.7 534.575 259.075 532.9 250.1 529.8L250.725 530ZM63.05 371.075C46.775 321.45 33.525 262.575 25.7 201.975L25.175 197C23.65 188.95 22.8 179.675 22.8 170.225C22.8 125.075 42.525 84.55 73.825 56.8L73.975 56.675C131.35 16.1 225.175 39.775 264.8 52.6L264.5 52.9C226.125 99.7 202.85 160.2 202.85 226.1C202.85 228.35 202.875 230.6 202.925 232.85V232.525C202.925 235.1 203.125 238.75 203.425 243.75C204.25 254 204.725 265.95 204.725 278.025C204.725 298.075 203.425 317.825 200.875 337.2L201.125 334.925C200.3 340.075 199.85 346.025 199.85 352.075C199.85 382.85 211.9 410.825 231.575 431.5L231.525 431.45C234.042 434.083 236.667 436.558 239.4 438.875C228.575 450.475 205.025 476.125 179.975 506.275C162.25 527.6 150 523.5 145.975 522.175C128.85 512.975 115.425 498.7 107.525 481.4L107.3 480.85C90.2 449.55 75.15 413.15 64.05 375.05L63.075 371.125L63.05 371.075ZM725 460C724.525 458.575 723.925 457.35 723.2 456.225L723.25 456.3C718.9 448.075 708.35 445.625 691.775 449.05C640.125 459.7 620.125 453.15 612.875 448.45C653.3 387.15 685.825 316.15 706.65 240.3L707.875 235.075C716.35 202.25 732.8 125 711.7 87.25C710.225 84.45 708.65 82.05 706.9 79.8L706.975 79.9C667.9 31.025 608.275 0 541.4 0C539.5 0 537.6 0.0250005 535.725 0.0750005H536C534.95 0.0500005 533.725 0.0499994 532.475 0.0499994C498.925 0.0499994 466.65 5.55 436.525 15.675L438.65 15.05C433.3 14.05 427.925 13.2 422.525 12.5C410.325 10.175 396.2 8.725 381.75 8.5H381.55C379.475 8.4 377.05 8.35 374.6 8.35C341.725 8.35 311.15 18.2 285.675 35.125L286.275 34.75C259.5 24.725 136.675 -16.65 60.65 37.2C23.425 68.95 0 115.875 0 168.3C0 178.425 0.875 188.35 2.55 198L2.4 196.975C10.775 264.425 24.375 325.125 43.2 383.5L41.225 376.4C53.55 419.3 68.8 456.425 87.525 491.4L86 488.3C96.825 512.9 115.55 532.4 138.9 543.925L139.55 544.225C143.75 545.45 148.575 546.175 153.575 546.175C172.125 546.175 188.375 536.4 197.475 521.7L197.6 521.475C222.625 491.375 247.275 464.425 258.35 452.525C270.9 459.5 285.775 463.8 301.625 464.3H301.775L301.8 464.425C299.167 467.558 296.592 470.742 294.075 473.975C283.475 487.425 281.275 490.2 247.2 497.225C237.5 499.225 211.75 504.525 211.375 522.575C211.375 522.675 211.375 522.775 211.375 522.9C211.375 526.575 212.45 530 214.3 532.875L214.25 532.8C222.05 542.675 233.025 549.75 245.6 552.5L245.975 552.575C255.95 555.825 267.45 557.7 279.35 557.7C306.85 557.7 332 547.75 351.45 531.25L351.3 531.375C350.7 541.825 350.375 554.075 350.375 566.4C350.375 610.225 354.65 653.075 362.775 694.525L362.1 690.35C371.65 724.675 402.5 749.525 439.2 749.85H439.25C448.475 749.775 457.4 748.7 466 746.75L465.175 746.9C513.15 742.625 550.95 704.275 554.35 656.425L554.375 656.125C559.075 628.925 566.925 566.3 571.2 528C571.4 526.375 572.05 524.925 573 523.725L572.975 523.75C573 523.725 575.15 522.275 586.325 524.7L587.7 524.925L595.625 525.625L596.1 525.65C598.475 525.75 601.275 525.825 604.075 525.825C629.675 525.825 654.125 520.825 676.45 511.725L675.175 512.175C695.3 502.85 731.575 479.925 725 460Z" fill="#BBBBBB"/>
</svg>
