<svg width="706" height="630" viewBox="0 0 706 630" fill="none" xmlns="http://www.w3.org/2000/svg">
<path d="M434.367 456.074C416.518 481.455 397.067 505.671 376.133 528.574C431.867 582.674 483.733 608.007 512.467 591.374C541.267 574.774 545.233 517.207 526.267 441.907C497.833 448.241 466.933 453.041 434.367 456.074ZM390.7 458.974C365.422 460.02 340.111 460.02 314.833 458.974C327.4 475.374 340.1 490.574 352.767 504.441C365.433 490.574 378.1 475.374 390.7 458.974ZM558.7 195.841C647.533 221.307 705.533 263.641 705.533 314.741C705.533 365.841 647.533 408.174 558.7 433.641C581.033 523.307 573.4 594.707 529.167 620.241C484.9 645.807 419.233 616.741 352.767 552.574C286.3 616.741 220.633 645.807 176.367 620.241C132.133 594.707 124.467 523.307 146.833 433.641C58 408.174 0 365.841 0 314.741C0 263.641 58 221.307 146.833 195.841C124.5 106.174 132.133 34.774 176.367 9.24068C220.633 -16.326 286.3 12.7407 352.767 76.9073C419.233 12.7407 484.9 -16.326 529.167 9.24068C573.4 34.774 581.067 106.174 558.7 195.841ZM526.267 187.574C545.267 112.241 541.267 54.7073 512.5 38.1073C483.733 21.474 431.867 46.8073 376.167 100.907C395.867 122.341 415.467 146.707 434.367 173.407C466.967 176.407 497.833 181.207 526.267 187.574ZM179.267 441.907C160.267 517.241 164.267 574.774 193.033 591.374C221.8 608.007 273.667 582.674 329.367 528.574C308.444 505.67 289.005 481.454 271.167 456.074C240.263 453.312 209.567 448.58 179.267 441.907ZM314.833 170.507C340.111 169.461 365.422 169.461 390.7 170.507C378.717 154.823 366.061 139.664 352.767 125.074C340.1 138.941 327.433 154.107 314.833 170.507ZM271.167 173.407C289.026 148.025 308.488 123.809 329.433 100.907C273.667 46.8073 221.767 21.474 193.067 38.1073C164.267 54.7073 160.3 112.274 179.267 187.574C207.7 181.241 238.6 176.441 271.167 173.407ZM415.9 424.074C439.628 389.253 460.72 352.706 479 314.741C460.72 276.775 439.628 240.229 415.9 205.407C373.87 202.261 331.663 202.261 289.633 205.407C265.905 240.229 244.813 276.775 226.533 314.741C244.813 352.706 265.905 389.253 289.633 424.074C331.663 427.221 373.87 427.221 415.9 424.074ZM458.7 419.707C479.2 417.041 498.7 413.607 517.033 409.574C511.038 390.766 504.232 372.227 496.633 354.007C484.9 376.41 472.244 398.318 458.7 419.674V419.707ZM246.833 209.741C226.333 212.407 206.833 215.841 188.5 219.874C194.167 237.741 200.967 256.341 208.9 275.441C220.634 253.038 233.289 231.097 246.833 209.741ZM188.5 409.541C206.833 413.574 226.333 416.974 246.833 419.674C233.289 398.318 220.634 376.41 208.9 354.007C200.967 373.074 194.167 391.674 188.5 409.541ZM155.9 401.374C164.6 373.574 175.9 344.441 189.567 314.707C175.9 284.974 164.6 255.841 155.9 228.041C81.1667 249.274 33.3333 281.507 33.3333 314.707C33.3333 347.907 81.1667 380.141 155.9 401.374ZM517.033 219.874C498.7 215.841 479.2 212.441 458.7 209.741C472.244 231.097 484.9 253.005 496.633 275.407C504.567 256.341 511.367 237.741 517.033 219.874ZM549.633 228.041C540.933 255.841 529.633 284.974 515.967 314.707C529.633 344.441 540.933 373.574 549.633 401.374C624.367 380.141 672.2 347.907 672.2 314.707C672.2 281.507 624.367 249.274 549.633 228.041ZM352.767 377.407C344.537 377.407 336.388 375.786 328.785 372.637C321.182 369.488 314.274 364.872 308.455 359.053C302.635 353.234 298.02 346.325 294.87 338.722C291.721 331.119 290.1 322.97 290.1 314.741C290.1 306.511 291.721 298.362 294.87 290.759C298.02 283.156 302.635 276.248 308.455 270.429C314.274 264.61 321.182 259.994 328.785 256.844C336.388 253.695 344.537 252.074 352.767 252.074C369.387 252.074 385.326 258.676 397.079 270.429C408.831 282.181 415.433 298.12 415.433 314.741C415.433 331.361 408.831 347.3 397.079 359.053C385.326 370.805 369.387 377.407 352.767 377.407Z" fill="#BBBBBB"/>
</svg>
