<svg width="720" height="716" viewBox="0 0 720 716" fill="none" xmlns="http://www.w3.org/2000/svg">
<path d="M600 480C548 480 504 512 488 560H320C320 532 312 508 300 488L584 196C596 196 608 200 620 200C676 200 720 156 720 100C720 44 676 0 620 0C564 0 520 44 520 100C520 112 524 128 528 140L248 428C224 408 192 400 160 400V232C208 216 240 172 240 120C240 52 188 0 120 0C52 0 0 52 0 120C0 172 32 216 80 232V420C32 448 0 500 0 556C0 644 72 716 160 716C220 716 272 684 296 636H484C500 680 544 716 596 716C660 716 716 664 716 596C720 532 664 480 600 480Z" fill="#BBBBBB"/>
</svg>
