<svg width="23" height="19" viewBox="0 0 23 19" fill="none" xmlns="http://www.w3.org/2000/svg">
<path d="M22.8087 2.21996C22.6547 2.11591 22.4507 2.1212 22.302 2.23334C22.1066 2.38107 21.7888 2.49828 21.4466 2.58858C22.3376 1.59275 22.3568 0.927803 22.3472 0.774732C22.3372 0.616843 22.2418 0.476708 22.0982 0.409289C21.9541 0.34148 21.7854 0.35802 21.657 0.450835C20.6549 1.17751 19.6567 1.33097 19.0629 1.34643C18.1518 0.476708 16.9682 0 15.709 0C13.0127 0 10.8191 2.21745 10.8191 4.94299C10.8191 5.1772 10.8354 5.41145 10.8682 5.64314C6.19525 5.59035 2.40058 1.12385 2.3615 1.07723C2.27033 0.968481 2.13159 0.910395 1.98985 0.922898C1.84811 0.935227 1.72126 1.01554 1.65028 1.13848C0.305432 3.46576 1.2053 5.50982 2.02789 6.68012C1.88232 6.60272 1.76438 6.52644 1.69406 6.4747C1.56337 6.37763 1.38891 6.36152 1.24208 6.43337C1.09546 6.50543 1.00177 6.65299 0.998984 6.81596C0.962646 9.03345 2.03276 10.3038 3.03869 11.0061C2.90461 10.9933 2.7684 11.0431 2.67535 11.1441C2.57078 11.2575 2.53405 11.4175 2.57909 11.5648C3.27395 13.834 4.98043 14.6049 6.0663 14.8665C3.83364 16.6002 0.548308 16.0423 0.51197 16.036C0.3137 16.001 0.117563 16.1051 0.0368367 16.2887C-0.0439334 16.472 0.011335 16.6869 0.171134 16.8084C2.52765 18.6025 5.34616 19 7.38226 19C8.9222 18.9998 10.015 18.7723 10.1196 18.7496C20.4325 16.3117 20.7227 6.88824 20.6991 5.34381C22.6351 3.54777 22.9377 2.86372 22.9845 2.69459C23.0338 2.51504 22.9632 2.32428 22.8087 2.21996ZM19.9635 4.83997C19.8666 4.92901 19.8154 5.05725 19.8241 5.18844C19.8515 5.60541 20.3789 15.4323 9.92704 17.903C9.87969 17.913 5.72503 18.7778 2.12328 16.9979C3.64494 16.9557 5.82704 16.5581 7.34718 14.8555C7.46194 14.7273 7.48979 14.5434 7.41838 14.387C7.34783 14.2321 7.19269 14.1326 7.02227 14.1326C7.02079 14.1326 7.01931 14.1326 7.01783 14.1326C6.99616 14.1464 4.71079 14.1301 3.6647 11.9614C4.08609 11.9852 4.60561 11.9593 5.01934 11.7691C5.18976 11.6907 5.29046 11.5122 5.26944 11.3261C5.24842 11.1402 5.11029 10.9887 4.92669 10.9501C4.80963 10.9255 2.26567 10.358 1.90974 7.58948C2.29583 7.75779 2.78946 7.89558 3.27817 7.82117C3.44606 7.79594 3.58354 7.67552 3.63093 7.51294C3.67832 7.35036 3.62645 7.17485 3.49833 7.06376C3.38953 6.96925 1.00025 4.851 2.13307 2.11929C3.36277 3.40637 7.00552 6.75154 11.4185 6.49866C11.548 6.49124 11.6674 6.42638 11.7443 6.32206C11.821 6.21778 11.8472 6.0849 11.8155 5.9594C11.732 5.62742 11.6894 5.28534 11.6894 4.94299C11.6894 2.69606 13.4927 0.868242 15.709 0.868242C16.7931 0.868242 17.8101 1.2998 18.5721 2.08369C18.6522 2.16613 18.762 2.21363 18.877 2.21554C19.3381 2.22187 20.0965 2.16783 20.9528 1.82526C20.7057 2.13201 20.3428 2.49997 19.8088 2.9182C19.6579 3.0365 19.6025 3.23958 19.6724 3.41783C19.7425 3.59652 19.9233 3.7093 20.1124 3.69233C20.2138 3.6843 20.731 3.63872 21.3154 3.5126C20.997 3.85512 20.5606 4.29202 19.9635 4.83997Z" fill="#BBBBBB"/>
</svg>
